<?xml version="1.0" encoding="UTF-8"?>
<svg xmlns="http://www.w3.org/2000/svg" xmlns:xlink="http://www.w3.org/1999/xlink" width="1176pt" height="192pt" viewBox="0 0 1176 192" version="1.1">
<g id="surface1">
<path style=" stroke:none;fill-rule:evenodd;fill:rgb(92.89856%,10.998535%,14.099121%);fill-opacity:1;" d="M 148.058594 139.171875 L 204.703125 139.171875 C 203.097656 155.5 198.066406 167.386719 189.605469 174.777344 C 182.378906 181.09375 172.097656 185.484375 158.660156 188 C 145.222656 190.515625 125.089844 191.746094 98.320313 191.746094 C 76.367188 191.746094 59.5 190.675781 47.667969 188.589844 C 35.835938 186.5 26.363281 182.753906 19.292969 177.292969 C 12.175781 171.882813 7.195313 164.496094 4.460938 155.179688 C 1.679688 145.917969 0.289063 131.675781 0.289063 112.5625 C 0.289063 97.785156 0.769531 86.808594 1.785156 79.632813 C 2.75 72.40625 4.785156 65.980469 7.835938 60.308594 C 13.777344 48.3125 24.753906 40.390625 40.765625 36.640625 C 54.253906 33.484375 75.351563 31.929688 104.15625 31.929688 C 116.789063 31.929688 127.550781 32.144531 136.441406 32.574219 C 145.328125 33 152.394531 33.644531 157.640625 34.605469 C 175.789063 37.714844 188.425781 44.617188 195.441406 55.21875 C 202.453125 65.820313 205.933594 83.648438 205.933594 108.761719 L 205.613281 124.128906 L 57.09375 124.128906 C 57.09375 131.785156 57.578125 137.242188 58.484375 140.617188 C 59.449219 143.9375 61.429688 146.773438 64.480469 149.074219 C 70.210938 153.253906 82.953125 155.339844 102.710938 155.339844 C 115.183594 155.339844 124.605469 154.859375 130.980469 153.949219 C 137.351563 152.984375 141.738281 151.324219 144.148438 148.914063 C 146.023438 147.042969 147.308594 143.777344 148.058594 139.171875 Z M 148.859375 93.074219 C 148.859375 87.238281 148.433594 83.167969 147.574219 80.867188 C 147.148438 78.671875 146.078125 76.636719 144.308594 74.761719 C 139.386719 69.730469 126.265625 67.210938 104.902344 67.210938 C 85.683594 67.210938 73.046875 68.871094 67 72.246094 C 63.839844 73.90625 61.429688 76.476563 59.664063 79.902344 C 57.949219 83.382813 57.09375 87.71875 57.09375 93.074219 Z M 246.894531 0.824219 L 303.699219 0.824219 L 303.699219 35.839844 L 393.539063 35.839844 L 393.539063 76.476563 L 303.699219 76.476563 L 303.699219 120.699219 C 303.699219 132.585938 304.554688 140.082031 306.214844 143.132813 C 309.050781 148.328125 315.800781 150.953125 326.398438 150.953125 C 337.378906 150.953125 344.230469 148.433594 346.960938 143.402344 C 347.867188 141.527344 348.511719 139.597656 348.832031 137.617188 L 348.832031 122.734375 L 400.765625 122.734375 C 400.765625 136.976563 399.855469 147.46875 398.089844 154.269531 C 397.339844 157.589844 396.324219 160.695313 394.929688 163.585938 C 393.59375 166.476563 391.71875 169.367188 389.308594 172.3125 C 383.742188 179.433594 375.925781 184.414063 365.859375 187.359375 C 355.792969 190.300781 340.964844 191.746094 321.257813 191.746094 C 302.789063 191.746094 289.1875 190.785156 280.464844 188.855469 C 271.683594 186.929688 264.5625 183.183594 258.992188 177.613281 C 255.03125 173.757813 252.085938 169.421875 250.210938 164.601563 C 249.140625 161.820313 248.339844 158.875 247.75 155.929688 C 247.160156 152.929688 246.894531 149.34375 246.894531 145.167969 L 246.894531 76.476563 L 216.910156 76.476563 L 216.910156 35.839844 L 246.894531 35.839844 Z M 410.9375 139.546875 L 468.871094 139.546875 C 468.871094 145.703125 472.460938 150.148438 479.6875 152.875 C 486.378906 155.289063 498.585938 156.464844 516.359375 156.464844 C 534.726563 156.464844 547.253906 155.5 553.894531 153.574219 C 560.53125 151.644531 563.851563 147.898438 563.851563 142.332031 C 563.851563 137.242188 560.640625 133.710938 554.269531 131.835938 C 550.089844 130.710938 533.976563 130.125 505.8125 130.125 C 478.667969 130.125 461.75 129.640625 455.164063 128.730469 C 437.601563 126.429688 425.609375 120.59375 419.132813 111.277344 C 414.421875 104.421875 412.0625 95.109375 412.0625 83.382813 C 412.0625 61.109375 420.308594 46.492188 436.851563 39.640625 C 449.488281 34.5 476.207031 31.929688 517.003906 31.929688 C 542.917969 31.929688 561.710938 32.894531 573.378906 34.820313 C 585.050781 36.75 594.101563 40.441406 600.578125 45.851563 C 604.539063 49.222656 607.378906 53.238281 609.144531 57.949219 C 610.859375 62.664063 612.089844 69.570313 612.839844 78.777344 L 554.964844 78.777344 C 554 75.03125 552.714844 72.621094 551.054688 71.605469 C 548.644531 70.105469 544.523438 69.03125 538.738281 68.285156 C 532.902344 67.589844 525.089844 67.210938 515.289063 67.210938 C 497.300781 67.210938 485.09375 68.125 478.613281 69.890625 C 472.136719 71.65625 468.871094 74.925781 468.871094 79.582031 C 468.871094 85.578125 473.421875 88.949219 482.523438 89.808594 C 493.175781 90.128906 505.8125 90.394531 520.484375 90.664063 C 535.101563 90.929688 548.269531 91.039063 559.996094 91.039063 C 581.195313 91.039063 596.617188 94.574219 606.253906 101.640625 C 615.839844 108.707031 620.65625 120.96875 620.65625 138.421875 C 620.65625 149.71875 618.78125 158.980469 615.035156 166.261719 C 611.234375 173.542969 605.34375 178.953125 597.257813 182.484375 C 590.671875 185.535156 580.339844 187.839844 566.152344 189.390625 C 551.964844 190.945313 534.027344 191.746094 512.289063 191.746094 C 484.769531 191.746094 464.910156 190.675781 452.648438 188.480469 C 446.597656 187.410156 441.242188 185.910156 436.640625 183.929688 C 432.089844 181.949219 427.910156 179.273438 424.269531 175.898438 C 419.882813 171.9375 416.5625 166.960938 414.3125 161.015625 C 412.0625 155.070313 410.9375 147.898438 410.9375 139.546875 Z M 664.347656 2.109375 L 687.847656 2.109375 L 687.847656 38.996094 L 791.984375 38.996094 L 791.984375 59.074219 L 687.847656 59.074219 L 687.847656 123.699219 C 687.847656 130.175781 687.957031 135.636719 688.171875 140.136719 C 688.386719 144.632813 688.703125 148.113281 689.082031 150.628906 C 689.507813 153.144531 691.0625 156.035156 693.632813 159.25 C 696.257813 162.515625 700.59375 165.03125 706.644531 166.796875 C 712.746094 168.242188 721.3125 168.992188 732.394531 168.992188 C 737.910156 168.992188 742.511719 168.832031 746.152344 168.511719 C 749.847656 168.191406 752.902344 167.65625 755.417969 166.796875 C 760.128906 165.351563 763.875 162.675781 766.714844 158.820313 C 768.371094 156.199219 769.550781 152.984375 770.140625 149.183594 C 770.78125 145.328125 771.105469 138.957031 771.105469 129.960938 L 771.105469 120.539063 L 794.5 120.539063 L 794.5 129.960938 C 794.5 141.6875 793.964844 150.363281 792.949219 156.089844 C 791.878906 161.765625 789.789063 166.90625 786.683594 171.507813 C 782.347656 177.878906 775.867188 182.539063 767.140625 185.375 C 758.414063 188.269531 746.210938 189.710938 730.519531 189.710938 C 714.40625 189.710938 701.878906 188.429688 692.882813 185.859375 C 683.886719 183.285156 677.140625 179.003906 672.644531 172.957031 C 669.539063 168.566406 667.34375 163.476563 666.058594 157.695313 C 665.523438 155.125 665.148438 151.59375 664.824219 147.148438 C 664.507813 142.703125 664.347656 137.511719 664.347656 131.515625 L 664.347656 59.074219 L 627.777344 59.074219 L 627.777344 38.996094 L 664.347656 38.996094 Z M 810.457031 38.996094 L 833.960938 38.996094 L 833.960938 114.433594 C 833.960938 121.609375 834.121094 127.605469 834.441406 132.371094 C 834.761719 137.136719 835.300781 141.152344 836.15625 144.363281 C 837.601563 150.414063 840.4375 155.234375 844.613281 158.820313 C 848.789063 162.355469 854.789063 164.921875 862.605469 166.585938 C 870.367188 168.191406 881.074219 168.992188 894.675781 168.992188 C 903.777344 168.992188 911.753906 168.671875 918.5 168.03125 C 925.300781 167.441406 931.242188 166.371094 936.277344 164.921875 C 946.074219 162.300781 953.570313 157.804688 958.710938 151.429688 C 961.707031 147.898438 963.847656 143.238281 965.132813 137.457031 C 966.367188 131.730469 967.007813 123.429688 967.007813 112.5625 L 967.007813 38.996094 L 990.511719 38.996094 L 990.511719 187.839844 L 967.007813 187.839844 L 967.007813 165.566406 L 965.617188 165.566406 C 959.621094 174.988281 951.695313 181.414063 941.738281 184.839844 C 936.8125 186.394531 930.226563 187.625 921.980469 188.480469 C 913.734375 189.285156 903.722656 189.710938 892.050781 189.710938 C 873.847656 189.710938 859.605469 188.589844 849.273438 186.394531 C 838.992188 184.199219 830.855469 180.558594 824.914063 175.417969 C 819.558594 170.867188 815.808594 164.496094 813.613281 156.464844 C 812.546875 152.503906 811.742188 147.628906 811.261719 141.957031 C 810.722656 136.28125 810.457031 129.375 810.457031 121.34375 Z M 1016.261719 38.996094 L 1039.769531 38.996094 L 1039.769531 59.074219 L 1041.320313 59.074219 C 1044.910156 52.597656 1050.480469 47.296875 1058.128906 43.226563 C 1062.519531 41.03125 1068.410156 39.480469 1075.851563 38.515625 C 1083.300781 37.605469 1094.328125 37.121094 1108.941406 37.121094 C 1123.71875 37.121094 1134.640625 37.925781 1141.820313 39.535156 C 1148.988281 41.191406 1155.101563 44.136719 1160.128906 48.421875 C 1170.140625 57.09375 1175.171875 71.175781 1175.171875 90.609375 L 1175.171875 105.976563 L 1151.019531 105.976563 L 1151.019531 95.324219 C 1151.019531 86.96875 1150.441406 80.757813 1149.308594 76.691406 C 1148.351563 72.460938 1146.421875 68.980469 1143.480469 66.144531 C 1137.429688 60.628906 1125 57.84375 1106.320313 57.84375 C 1077.941406 57.84375 1059.738281 61.539063 1051.710938 68.980469 C 1047.75 72.621094 1044.75 78.617188 1042.769531 86.863281 C 1040.789063 95.109375 1039.769531 105.867188 1039.769531 119.148438 L 1039.769531 187.839844 L 1016.261719 187.839844 L 1016.261719 38.996094 "/>
</g>
</svg>
